<svg width="500" height="500" viewBox="0 0 500 500" fill="none" xmlns="http://www.w3.org/2000/svg">
<path d="M329.645 120.175L361.4 124.401L389.003 132.162L390.039 132.283L391.255 132.287L392.973 132.036L394.137 131.684L394.351 131.596L394.637 131.479L394.78 131.42L396.004 130.762L396.322 130.542L396.718 130.266L397.885 129.225L398.672 128.297L398.929 127.912L398.994 127.815L399.252 127.43L399.879 126.189L400.412 124.535L400.626 123.161L400.629 123.026L400.633 122.89L400.636 122.755L400.639 122.62L400.643 122.485L400.656 121.944L400.648 121.848L400.594 121.173L400.587 121.077L400.566 120.963L400.506 120.62L400.404 120.049L400.275 119.584L400.249 119.491L400.223 119.398L400.197 119.305L400.171 119.212L399.708 118.065L399.65 117.922L399.45 117.569L399.051 116.863L398.1 115.622L381.665 99.3428L357.82 81.3013L357.463 81.1085L356.75 80.7228L356.392 80.5755L355.946 80.3915L354.778 80.0481L353.057 79.8092L352.768 79.807L352.671 79.8064L352.188 79.803L351.149 79.8954L350.294 80.055L349.128 80.4021L348.325 80.7357L346.821 81.606L346.09 82.1776L345.999 82.2491L324.501 103.753L324.268 104.062L324.152 104.216L324.036 104.371L323.455 105.143L323.261 105.5L322.873 106.213L322.799 106.392L322.762 106.481L322.725 106.571L322.651 106.75L322.54 107.018L322.493 107.185L322.121 108.527L322.085 108.795L322.067 108.929L322.05 109.064L321.961 109.735L321.989 111.474L322.069 111.932L322.229 112.846L322.723 114.332L322.963 114.796L323.443 115.723L324.148 116.716L325.094 117.737L326.461 118.811L327.364 119.336L328.808 119.939L329.645 120.175Z" fill="url(#paint0_linear_36_59)"/>
<path d="M412.567 15.6346L417.023 11.2559L419.171 9.51231L423.199 6.83352L429.449 3.89441L434.08 2.50024L440.223 1.54806L443.677 1.43581L449.869 1.98688L454.581 3.07723L459.127 4.72961L463.44 6.9199L467.457 9.61598L469.597 11.3688L487.385 29.1742L489.136 31.316L491.83 35.3371L494.018 39.6546L495.669 44.2052L496.758 48.9221L497.308 55.1196L497.196 58.577L496.245 64.7256L494.852 69.3619L491.916 75.6176L489.24 79.6502L487.498 81.7995L483.124 86.26L482.146 86.9849L480.772 87.7326L480.7 87.7616L480.629 87.7907L480.557 87.8197L480.485 87.8487L480.414 87.8777L480.342 87.9068L480.127 87.9939L478.791 88.3789L477.414 88.5744L475.851 88.5632L474.647 88.3855L473.31 88.0047L472.348 87.599L471.288 87.0019L471.006 86.7981L470.442 86.3906L469.422 85.4445L454.31 66.2207L432.587 44.4769L413.382 29.3493L412.437 28.3286L412.369 28.2345L412.233 28.0464L412.166 27.9524L412.098 27.8583L412.03 27.7643L411.962 27.6702L411.826 27.4821L411.084 26.1046L410.66 24.9627L410.612 24.7754L410.588 24.6817L410.564 24.5881L410.54 24.4944L410.444 24.1197L410.424 23.9858L410.405 23.852L410.385 23.7181L410.267 22.9148L410.263 22.393L410.26 22.0452L410.255 21.3495L410.277 21.1964L410.299 21.0433L410.407 20.2777L410.429 20.1247L410.451 19.9716L410.493 19.823L410.835 18.6341L410.922 18.419L410.951 18.3473L411.009 18.2038L411.038 18.1322L411.096 17.9887L411.843 16.6135L412.004 16.396L412.085 16.2872L412.567 15.6346Z" fill="url(#paint1_linear_36_59)"/>
<path d="M376.265 52.3977L375.591 53.8101L375.51 54.0681L375.469 54.1972L375.224 54.9713L375.175 55.2374L375.15 55.3705L375.001 56.1687L374.976 56.6319L374.968 56.7863L374.926 57.5584L374.968 58.0981L375.02 58.7728L375.085 59.1146L375.107 59.2285L375.173 59.5703L375.195 59.6842L375.217 59.7982L375.312 60.0925L375.359 60.2397L375.406 60.3868L375.643 61.1228L375.79 61.4385L375.838 61.5438L376.082 62.0702L376.919 63.3926L376.98 63.4674L377.041 63.5422L377.102 63.617L377.164 63.6918L377.286 63.8413L377.347 63.9162L377.47 64.0658L378.356 64.9279L378.467 65.0357L397.282 79.8158L413.856 95.8479L433.884 120.526L434.739 121.391L435.412 121.943L436.733 122.781L436.838 122.829L436.943 122.878L437.364 123.073L437.469 123.122L437.679 123.22L439.003 123.647L440.027 123.844L441.24 123.937L442.629 123.863L443.825 123.639L444.598 123.394L444.727 123.353L444.985 123.272L446.396 122.597L447.819 121.599L452.398 117.049L452.582 116.827L452.949 116.382L453.014 116.286L453.53 115.521L453.881 114.837L453.951 114.7L454.161 114.289L454.297 113.909L454.342 113.783L454.387 113.656L454.523 113.276L454.569 113.149L454.601 112.999L454.862 111.796L454.908 111.106L454.919 110.933L454.931 110.76L454.942 110.588L454.965 110.242L454.956 110.108L454.946 109.974L454.897 109.303L454.888 109.168L454.878 109.034L454.552 107.512L454.414 107.132L454.368 107.006L454.138 106.373L453.5 105.145L442.983 91.2596L423.187 69.712L393.992 45.472L392.473 44.6478L391.336 44.2331L389.815 43.9073L388.608 43.8198L387.056 43.9232L385.704 44.2167L384.565 44.6248L384.154 44.8352L384.018 44.9054L383.334 45.2561L383.047 45.45L382.474 45.8381L382.178 46.0829L382.104 46.1442L382.03 46.2054L381.956 46.2666L381.808 46.3891L377.262 50.9735L376.265 52.3977Z" fill="url(#paint2_linear_36_59)"/>
<path d="M363.492 345.011L359.597 350.792L356.169 354.74L347.984 362.436L335.754 372.023L315.716 383.901L294.08 392.527L273.93 397.292L263.656 398.619L244.339 399.26L243.997 399.311L243.883 399.327L243.769 399.344L243.314 399.411L242.87 399.532L242.722 399.573L241.982 399.775L241.769 399.862L241.663 399.905L241.024 400.167L240.622 400.391L240.488 400.466L239.818 400.84L239.662 400.951L239.584 401.007L239.428 401.119L239.35 401.175L239.272 401.231L239.116 401.343L169.165 471.293L168.525 472.112L168.369 472.355L168.317 472.437L168.058 472.842L167.385 474.248L166.903 475.911L166.74 477.113L166.724 478.326L166.918 479.873L167.235 481.044L167.766 482.323L167.813 482.408L167.86 482.492L168.187 483.081L168.882 484.075L169.236 484.455L169.354 484.582L169.943 485.216L170.09 485.34L170.164 485.401L170.238 485.464L170.606 485.774L172.063 486.707L172.377 486.852L172.482 486.9L173.007 487.141L207.341 495.618L233.174 498.687L272.172 498.212L302.171 493.637L327.284 486.839L367.134 469.827L392.991 453.929L413.482 437.886L429.208 422.944L446.281 403.297L465.695 374.539L484.065 335.265L493.698 301.923L497.335 280.527L499.232 254.556L498.743 232.859L495.676 207L487.208 172.632L486.823 171.792L486.774 171.687L486.357 170.995L486.148 170.649L485.045 169.314L484.693 168.986L484.623 168.92L484.412 168.724L483.152 167.807L482.395 167.386L481.443 166.97L480.284 166.613L479.435 166.446L478.401 166.343L477.19 166.359L475.989 166.522L474.327 167.005L472.923 167.679L471.776 168.455L471.689 168.531L471.602 168.607L471.428 168.758L471.253 168.91L471.166 168.986L471.079 169.062L470.992 169.138L470.979 169.151L470.965 169.165L470.951 169.178L470.937 169.192L470.924 169.205L470.91 169.219L470.896 169.232L470.883 169.246L470.869 169.259L433.008 207.157L432.994 207.171L432.98 207.184L432.966 207.198L432.953 207.211L432.939 207.225L432.925 207.238L432.912 207.252L432.898 207.265L432.884 207.279L431.964 208.067L430.652 208.906L429.872 209.28L429.325 209.46L429.142 209.52L428.23 209.82L427.036 210.025L425.999 210.085L424.447 209.972L423.598 209.804L422.279 209.386L421.489 209.033L420.585 208.522L402.861 194.953L389.441 187.043L365.488 177.09L350.417 173.161L327.252 170.254L303.917 170.984L280.978 175.336L266.182 180.2L247.39 189.025L229.998 200.365L206.953 220.098L201.701 223.195L196.11 225.628L191.956 226.939L185.982 228.156L182.517 228.52L176.421 228.574L172.085 228.156L166.111 226.939L161.957 225.628L156.367 223.195L151.841 220.579L145.625 215.805L141.93 212.106L138.641 208.041L135.794 203.653L133.074 198.192L131.039 192.44L129.72 186.483L129.227 182.151L129.136 176.92L129.72 170.846L131.287 164.053L134.547 155.975L137.16 151.445L139.69 147.895L143.118 143.947L159.347 129.718L174.438 119.679L185.906 113.663L207.687 105.413L227.916 100.997L254.948 99.4268L256.645 99.1175L257.948 98.6622L258.207 98.5374L258.294 98.4958L258.726 98.2878L260.171 97.3448L330.122 27.3941L330.407 27.0302L330.478 26.9391L330.762 26.5752L331.229 25.8449L331.902 24.4392L332.062 23.8848L332.116 23.7L332.384 22.7761L332.547 21.5741L332.549 21.4393L332.552 21.1698L332.554 21.035L332.561 20.496L332.563 20.3612L332.52 19.9592L332.433 19.1553L332.371 18.8927L332.341 18.7616L332.249 18.3678L332.157 17.9741L331.521 16.3639L331.38 16.1113L331.334 16.0271L331.1 15.6061L330.185 14.345L329.66 13.7812L329.595 13.7107L328.261 12.6073L327.915 12.3982L327.224 11.98L326.28 11.5458L291.946 3.06935L266.112 0L227.115 0.475196L197.116 5.0499L155.713 17.8187L132.153 28.8604L99.281 49.8675L76.2129 69.6027L61.2862 85.344L42.799 109.432L33.5914 124.148L15.2215 163.422L7.56159 188.308L1.9518 218.16L0.0546645 244.131L0.544152 265.829L3.61052 291.687L12.0787 326.055L12.5125 327L13.1391 328.039L14.2415 329.373L14.5419 329.643L15.1425 330.184L15.4734 330.416L15.5836 330.494L16.1351 330.88L16.2191 330.927L16.3874 331.02L16.4715 331.067L16.892 331.301L17.2094 331.44L17.3152 331.486L17.8442 331.717L18.2302 331.836L18.3589 331.876L19.0022 332.074L19.191 332.111L19.2854 332.13L19.3798 332.148L19.8517 332.242L20.8854 332.345L21.1547 332.341L21.2893 332.339L22.0971 332.328L23.8048 332.051L24.1897 331.928L24.9595 331.683L25.1155 331.608L26.3638 331.009L27.5108 330.232L66.6557 291.172L66.8781 290.988L66.9523 290.927L67.0264 290.866L67.323 290.621L68.332 289.95L69.4146 289.407L71.0573 288.867L72.2509 288.662L72.5964 288.642L73.2874 288.603L74.3245 288.651L74.7793 288.728L75.6888 288.883L77.008 289.301L77.2714 289.419L77.3592 289.458L77.7983 289.654L78.702 290.166L96.4261 303.734L109.846 311.644L133.799 321.597L148.869 325.526L172.035 328.434L195.37 327.703L213.275 324.627L223.296 321.902L242.654 314.401L260.789 304.294L269.289 298.322L292.333 278.589L297.586 275.492L303.177 273.059L307.331 271.748L313.305 270.532L317.64 270.114H322.866L327.202 270.532L334.851 272.229L340.561 274.366L345.217 276.741L350.992 280.64L354.937 284.072L360.646 290.647L363.493 295.034L366.213 300.495L368.248 306.247L369.567 312.205L370.151 318.279V321.767L369.567 327.841L368 334.635L366.213 339.551L363.492 345.011Z" fill="url(#paint3_linear_36_59)"/>
<path fill-rule="evenodd" clip-rule="evenodd" d="M20.2552 401.704L41.5428 386.938L73.1443 355.441L73.1906 355.406L73.3757 355.269L73.4219 355.234L73.4682 355.2L73.5608 355.131L73.8181 354.963L73.8825 354.921L74.1399 354.753L74.2401 354.696L74.3904 354.611L74.4404 354.582L74.4905 354.554L74.5907 354.497L74.7452 354.419L74.7967 354.393L74.8481 354.368L75.0541 354.264L75.497 354.079L75.5856 354.042L75.7628 353.968L75.8514 353.93L75.9972 353.882L76.0702 353.858L76.1432 353.834L76.2161 353.81L76.2891 353.786L76.362 353.762L76.508 353.714L76.545 353.704L76.6192 353.684L76.6562 353.674L76.6933 353.664L76.7303 353.654L76.7675 353.643L76.8045 353.633L76.8416 353.623L77.0296 353.584L77.3115 353.525L77.4055 353.505L77.4995 353.486L77.6875 353.447L77.7445 353.439L77.9729 353.408L78.03 353.4L78.0871 353.392L78.2012 353.376L78.4309 353.357L78.4883 353.352L78.5457 353.347L78.6031 353.342L78.7179 353.333L78.8715 353.329L78.9483 353.327L79.4091 353.316L79.4475 353.317L79.6011 353.322L79.6395 353.323L79.6779 353.324L79.7163 353.325L79.7547 353.326L79.8313 353.332L79.9078 353.338L79.9844 353.344L80.061 353.351L80.2141 353.363L80.4438 353.381L80.5581 353.397L80.5962 353.402L80.6342 353.407L80.6723 353.412L80.7104 353.417L80.7866 353.427L80.8621 353.441L81.0131 353.469L81.1641 353.497L81.2396 353.511L81.3151 353.525L81.4662 353.554L82.2411 353.776L82.6287 353.887L111.802 366.907L124.675 371.028L137.798 374.268L169.979 378.599L170.312 378.698L170.368 378.715L170.423 378.732L170.479 378.749L170.971 378.924L171.413 379.119L171.502 379.157L171.767 379.274L171.852 379.32L172.107 379.459L172.191 379.506L172.361 379.599L172.446 379.645L172.531 379.691L172.563 379.712L172.596 379.733L172.694 379.794L172.727 379.815L172.76 379.836L172.825 379.877L174.193 380.951L175.139 381.972L175.371 382.281L175.417 382.343L175.557 382.529L175.764 382.856L175.816 382.937L175.867 383.019L175.919 383.101L176.023 383.264L176.059 383.333L176.204 383.606L176.348 383.88L176.372 383.933L176.492 384.197L176.516 384.25L176.564 384.356L176.867 385.172L177.037 385.768L177.058 385.842L177.067 385.88L177.075 385.917L177.084 385.955L177.093 385.993L177.11 386.068L177.127 386.144L177.136 386.181L177.256 386.868L177.296 387.253L177.304 387.33L177.312 387.407L177.328 387.561L177.33 387.657L177.337 387.947L177.34 388.044L177.349 388.431L177.347 388.489L177.344 388.547L177.331 388.837L177.326 388.953L177.166 390.161L177.153 390.218L177.141 390.274L177.116 390.388L177.103 390.445L177.053 390.671L176.946 391.043L176.924 391.118L176.86 391.341L176.848 391.377L176.822 391.451L176.81 391.487L176.797 391.524L176.785 391.56L176.772 391.597L176.747 391.67L176.525 392.206L176.488 392.296L176.413 392.474L176.336 392.63L176.31 392.682L176.284 392.734L176.258 392.786L176.18 392.942L176.142 393.009L175.832 393.545L175.394 394.183L175.339 394.263L175.047 394.624L174.901 394.804L112.184 457.648L112.09 457.762L112.044 457.82L111.997 457.877L111.951 457.934L111.904 457.991L111.764 458.162L97.4326 478.957L96.8829 479.614L96.8297 479.668L96.7765 479.723L96.5635 479.941L96.4571 480.05L96.4039 480.104L96.2902 480.205L96.1197 480.358L96.0629 480.408L95.9493 480.51L95.8924 480.56L94.4879 481.538L94.0777 481.738L93.9409 481.805L93.2571 482.138L93.0432 482.219L92.9898 482.239L92.9363 482.259L92.8829 482.279L92.776 482.319L92.7216 482.336L92.6672 482.353L92.6128 482.371L92.504 482.405L92.4495 482.423L92.3951 482.44L92.3407 482.457L92.2863 482.475L92.0102 482.547L91.9549 482.561L91.8997 482.576L91.7892 482.605L0.00012207 499.232L16.6109 407.353L16.6687 407.132L16.7265 406.911L16.741 406.855L16.8274 406.583L16.8446 406.528L16.862 406.474L16.8965 406.365L16.9165 406.312L17.077 405.884L17.2628 405.466L17.3557 405.257L17.534 404.921L17.5697 404.853L17.6767 404.651L17.7571 404.522L18.0384 404.069L18.0601 404.038L18.1688 403.881L18.1905 403.85L18.2339 403.788L18.4204 403.547L18.6069 403.306L18.6535 403.246L19.5989 402.254L19.6717 402.193L19.9635 401.948L20.0364 401.887L20.2552 401.704ZM31.1361 433.88L31.061 434.004L30.8358 434.373L30.2191 435.516L29.4908 437.087L29.1681 437.89L28.6072 439.528L28.5808 439.621L28.3698 440.361L20.1614 479.05L58.8127 470.834L60.4679 470.33L62.0839 469.712L63.6532 468.983L64.0338 468.777L64.1606 468.708L64.2875 468.64L64.7949 468.366L65.9028 467.689L66.4979 467.282L66.6169 467.201L66.7359 467.119L66.974 466.956L67.8846 466.248L68.34 465.894L69.3144 465.036L70.8347 463.497L71.6807 462.512L72.7268 461.133L73.4472 460.052L74.1102 458.936L75.0832 457.003L75.2505 456.604L75.5851 455.805L76.1561 454.171L76.7079 452.078L77.0761 449.945L77.2717 447.356L77.1579 444.329L76.8521 442.186L76.3614 440.078L75.6898 438.021L74.4553 435.255L73.6019 433.749L72.8944 432.66L71.8646 431.268L69.5281 428.717L68.8853 428.137L68.5639 427.848L67.8918 427.302L67.5558 427.03L66.9728 426.605L66.8563 426.52L66.5065 426.266L63.9138 424.703L62.3533 423.956L61.5516 423.63L61.1508 423.468L56.9897 422.304L54.8492 421.998L53.1227 421.888L50.9606 421.92L49.8123 422.026L49.6209 422.044L49.2382 422.08L49.0014 422.121L48.883 422.141L48.6463 422.182L48.528 422.203L47.581 422.367L47.4626 422.387L47.3442 422.408L47.1075 422.449L45.7136 422.817L45.0168 423.001L43.7882 423.419L42.8988 423.783L42.7208 423.856L42.1871 424.075L39.1407 425.713L37.3634 426.945L35.3817 428.621L33.3052 430.825L32.5975 431.736L32.2437 432.192L31.5114 433.264L31.1361 433.88Z" fill="url(#paint4_linear_36_59)"/>
<defs>
<linearGradient id="paint0_linear_36_59" x1="1.54972e-06" y1="-1.54973e-06" x2="499" y2="499" gradientUnits="userSpaceOnUse">
<stop stop-color="#FF9600"/>
<stop offset="1" stop-color="#FF0B00"/>
</linearGradient>
<linearGradient id="paint1_linear_36_59" x1="1.54972e-06" y1="-1.54973e-06" x2="499" y2="499" gradientUnits="userSpaceOnUse">
<stop stop-color="#FF9600"/>
<stop offset="1" stop-color="#FF0B00"/>
</linearGradient>
<linearGradient id="paint2_linear_36_59" x1="1.54972e-06" y1="-1.54973e-06" x2="499" y2="499" gradientUnits="userSpaceOnUse">
<stop stop-color="#FF9600"/>
<stop offset="1" stop-color="#FF0B00"/>
</linearGradient>
<linearGradient id="paint3_linear_36_59" x1="1.54972e-06" y1="-1.54973e-06" x2="499" y2="499" gradientUnits="userSpaceOnUse">
<stop stop-color="#FF9600"/>
<stop offset="1" stop-color="#FF0B00"/>
</linearGradient>
<linearGradient id="paint4_linear_36_59" x1="1.54972e-06" y1="-1.54973e-06" x2="499" y2="499" gradientUnits="userSpaceOnUse">
<stop stop-color="#FF9600"/>
<stop offset="1" stop-color="#FF0B00"/>
</linearGradient>
</defs>
</svg>
