<svg width="3342" height="531" viewBox="0 0 3342 531" fill="none" xmlns="http://www.w3.org/2000/svg">
<path d="M330.152 120.359L361.956 124.593L389.602 132.365L390.639 132.486L391.857 132.49L393.577 132.239L394.743 131.887L395.388 131.623L396.613 130.963L397.329 130.467L398.497 129.424L399.285 128.494L399.866 127.626L400.494 126.383L401.027 124.727L401.242 123.35L401.252 122.944L401.256 122.809L401.259 122.673L401.272 122.132L401.203 121.263L401.182 121.149L401.02 120.234L400.891 119.768L400.865 119.675L400.839 119.581L400.813 119.488L400.787 119.395L400.265 118.104L399.665 117.043L398.712 115.8L382.252 99.4956L358.371 81.4263L357.298 80.8469L356.493 80.5152L355.324 80.1712L353.601 79.9319L353.31 79.9298L352.73 79.9257L351.689 80.0183L350.833 80.1782L349.665 80.5258L348.861 80.8599L347.354 81.7315L346.531 82.3756L325 103.913L324.651 104.377L323.952 105.304L323.37 106.377L323.296 106.556L323.258 106.645L323.222 106.735L323.036 107.182L322.616 108.694L322.563 109.097L322.456 109.903L322.484 111.646L322.724 113.02L323.219 114.508L323.94 115.901L324.646 116.896L325.594 117.918L326.963 118.994L327.867 119.519L329.313 120.124L330.152 120.359Z" fill="url(#paint0_linear_36_58)"/>
<path d="M413.202 15.6586L417.665 11.2732L419.815 9.52694L423.85 6.84404L430.109 3.9004L434.748 2.50409L440.9 1.55044L444.36 1.43802L450.561 1.98994L455.28 3.08196L459.833 4.73689L464.153 6.93055L468.176 9.63078L470.32 11.3863L488.135 29.2191L489.888 31.3641L492.586 35.3914L494.778 39.7156L496.431 44.2732L497.522 48.9974L498.073 55.2044L497.961 58.6671L497.008 64.8252L495.613 69.4686L492.673 75.7339L489.992 79.7727L488.248 81.9253L483.867 86.3927L482.887 87.1187L481.511 87.8676L481.44 87.8966L481.368 87.9257L481.296 87.9548L481.153 88.0129L480.866 88.1293L479.527 88.5149L478.149 88.7106L476.583 88.6995L475.377 88.5214L474.038 88.1401L473.075 87.7337L472.013 87.1358L471.166 86.5235L470.144 85.576L455.008 66.3226L433.253 44.5453L414.018 29.3945L413.071 28.3722L412.867 28.0896L412.8 27.9954L412.732 27.9012L412.664 27.807L412.596 27.7128L412.46 27.5244L411.716 26.1447L411.292 25.0011L411.244 24.8135L411.22 24.7197L411.075 24.1568L411.056 24.0227L411.036 23.8887L411.016 23.7546L410.898 22.95L410.894 22.4275L410.886 21.3823L410.908 21.229L411.038 20.3089L411.06 20.1556L411.082 20.0023L411.467 18.6628L411.554 18.4473L411.583 18.3755L411.641 18.2318L411.729 18.0164L412.477 16.6391L413.202 15.6586Z" fill="url(#paint1_linear_36_58)"/>
<path d="M376.844 52.4783L376.169 53.8928L375.801 55.0559L375.578 56.2551L375.503 57.6469L375.596 58.8632L375.684 59.3196L375.75 59.6619L375.772 59.776L375.794 59.8902L375.936 60.3324L375.984 60.4797L376.221 61.2168L376.66 62.1657L377.498 63.4901L377.56 63.5651L377.621 63.64L377.682 63.7148L377.744 63.7898L377.866 63.9395L377.927 64.0145L378.05 64.1644L379.049 65.1357L397.893 79.9386L414.493 95.9953L434.551 120.711L435.408 121.578L436.082 122.131L437.405 122.97L437.51 123.018L438.353 123.409L439.678 123.837L440.704 124.034L441.919 124.128L443.309 124.053L444.507 123.829L445.669 123.461L447.083 122.786L448.507 121.786L453.094 117.229L453.646 116.561L453.71 116.465L454.228 115.699L454.579 115.014L454.649 114.877L454.86 114.465L454.996 114.084L455.041 113.958L455.086 113.831L455.268 113.323L455.301 113.172L455.562 111.968L455.619 111.104L455.631 110.931L455.665 110.412L455.655 110.278L455.587 109.336L455.578 109.202L455.252 107.677L454.837 106.537L454.198 105.307L443.664 91.4L423.838 69.8192L394.598 45.542L393.077 44.7165L391.938 44.3011L390.414 43.9748L389.205 43.8873L387.651 43.9908L386.298 44.2847L385.156 44.6935L383.924 45.3257L383.063 45.9086L382.692 46.2152L382.617 46.2765L382.395 46.4604L377.842 51.0519L376.844 52.4783Z" fill="url(#paint2_linear_36_58)"/>
<path d="M364.052 345.542L360.15 351.332L356.716 355.286L348.519 362.994L336.27 372.595L316.201 384.492L294.532 393.13L274.351 397.904L264.062 399.232L244.714 399.875L244.372 399.925L244.258 399.942L244.144 399.958L243.688 400.025L242.355 400.39L242.141 400.477L242.034 400.521L241.394 400.782L240.992 401.007L240.187 401.456L240.031 401.568L239.953 401.624L239.796 401.736L239.718 401.792L239.484 401.96L169.425 472.018L168.784 472.838L168.628 473.082L168.576 473.164L168.317 473.57L167.642 474.978L167.16 476.643L166.996 477.847L166.98 479.062L167.175 480.611L167.492 481.784L168.024 483.065L168.071 483.15L168.445 483.824L169.142 484.819L170.205 485.962L170.426 486.148L170.499 486.211L170.868 486.521L172.327 487.456L172.642 487.601L172.747 487.649L173.273 487.891L207.66 496.38L233.533 499.455L272.59 498.979L302.636 494.397L327.787 487.588L367.698 470.55L393.595 454.627L414.118 438.559L429.868 423.595L446.968 403.917L466.412 375.115L484.81 335.781L494.457 302.387L498.1 280.959L500 254.948L499.51 233.217L496.439 207.318L487.957 172.898L487.523 171.951L486.895 170.911L485.791 169.575L485.439 169.246L485.368 169.18L485.157 168.983L483.895 168.065L483.137 167.644L482.183 167.227L481.023 166.87L480.172 166.702L479.137 166.599L477.924 166.615L476.721 166.778L475.057 167.262L473.65 167.937L472.502 168.714L472.414 168.79L471.978 169.17L471.891 169.246L471.804 169.322L471.717 169.398L471.689 169.425L471.675 169.438L471.662 169.452L471.634 169.479L471.62 169.492L471.607 169.506L471.593 169.52L433.674 207.476L433.66 207.49L433.646 207.503L433.632 207.516L433.619 207.53L433.605 207.544L433.591 207.557L433.578 207.571L433.55 207.598L432.628 208.387L431.315 209.227L430.533 209.602L428.888 210.143L427.693 210.348L426.655 210.408L425.1 210.295L424.25 210.127L422.928 209.708L422.137 209.355L421.232 208.842L403.481 195.253L390.04 187.331L366.05 177.363L350.956 173.428L327.755 170.515L304.384 171.247L281.41 175.605L266.592 180.477L247.771 189.316L230.352 200.674L207.272 220.437L202.011 223.538L196.412 225.975L192.251 227.288L186.268 228.507L182.797 228.872L176.692 228.925L172.35 228.507L166.367 227.288L162.206 225.975L156.607 223.538L152.074 220.919L145.849 216.137L142.148 212.432L138.854 208.361L136.003 203.967L133.279 198.497L131.241 192.736L129.919 186.77L129.426 182.431L129.334 177.193L129.919 171.109L131.489 164.305L134.754 156.215L137.371 151.678L139.904 148.123L143.338 144.169L159.592 129.918L174.707 119.863L186.191 113.837L208.006 105.575L228.267 101.152L255.34 99.5798L257.04 99.27L258.345 98.814L259.124 98.439L260.571 97.4946L330.63 27.4363L330.915 27.0718L330.986 26.9806L331.271 26.616L331.738 25.8846L332.412 24.4768L332.895 22.8111L333.058 21.6073L333.064 21.2024L333.075 20.3926L332.944 19.1848L332.883 18.9218L332.852 18.7904L332.668 18.0018L332.03 16.3891L331.89 16.136L331.843 16.0517L331.609 15.6301L330.693 14.3671L330.102 13.7318L328.766 12.6267L327.727 11.9984L326.782 11.5636L292.395 3.07407L266.522 0L227.464 0.475927L197.419 5.05767L155.953 17.8461L132.356 28.9048L99.4336 49.9442L76.3301 69.7098L61.3804 85.4753L42.8647 109.6L33.6429 124.339L15.2448 163.674L7.5731 188.598L1.95468 218.496L0.0546264 244.507L0.544867 266.238L3.61595 292.136L12.0972 326.557L12.5316 327.503L13.1592 328.543L14.2633 329.88L15.1657 330.692L16.1598 331.389L16.244 331.436L16.4125 331.53L16.4967 331.577L16.9179 331.811L17.8715 332.227L19.0313 332.585L19.315 332.641L19.8821 332.753L20.9174 332.856L21.1871 332.852L22.131 332.84L23.8413 332.562L24.9978 332.193L26.4042 331.518L27.553 330.74L66.7581 291.62L66.9809 291.436L67.0552 291.375L67.4265 291.068L68.437 290.396L69.5213 289.852L71.1665 289.311L72.3619 289.106L73.4 289.047L74.4387 289.095L75.8051 289.327L77.1264 289.746L77.9179 290.1L78.8229 290.612L96.5743 304.202L110.015 312.124L134.005 322.092L149.098 326.027L172.299 328.939L195.671 328.207L213.603 325.127L223.639 322.397L243.027 314.885L261.19 304.762L269.703 298.781L292.783 279.018L298.044 275.916L303.643 273.479L307.803 272.166L313.786 270.948L318.129 270.529H323.363L327.705 270.948L335.366 272.648L341.085 274.788L345.748 277.167L351.532 281.072L355.483 284.509L361.201 291.094L364.052 295.488L366.776 300.957L368.814 306.718L370.136 312.685L370.721 318.768V322.262L370.136 328.345L368.566 335.15L366.776 340.073L364.052 345.542Z" fill="url(#paint3_linear_36_58)"/>
<path fill-rule="evenodd" clip-rule="evenodd" d="M20.2862 402.322L41.6066 387.534L73.2567 355.987L73.4884 355.815L73.5348 355.781L73.6738 355.678L73.996 355.467L74.2538 355.299L74.5047 355.157L74.5548 355.128L74.605 355.099L74.7053 355.042L74.86 354.964L74.9116 354.939L74.9631 354.913L75.1694 354.809L75.6131 354.624L75.7018 354.586L75.8792 354.512L75.9679 354.475L76.114 354.427L76.1871 354.403L76.2602 354.379L76.3333 354.355L76.4063 354.33L76.6256 354.258L76.6627 354.248L76.7369 354.228L76.774 354.218L76.8112 354.208L76.8483 354.198L76.8854 354.187L76.9597 354.167L77.4303 354.069L77.5245 354.049L77.6186 354.03L77.8069 353.99L78.1499 353.943L78.2071 353.936L78.3214 353.92L78.6089 353.896L78.6664 353.891L78.8389 353.876L79.5312 353.86L79.5696 353.861L79.7235 353.865L79.7619 353.866L79.8004 353.867L79.8773 353.869L79.954 353.876L80.0306 353.882L80.1073 353.888L80.1841 353.894L80.5674 353.925L80.72 353.945L80.7582 353.95L80.7963 353.955L80.8344 353.961L80.9107 353.971L81.3645 354.055L81.5914 354.097L82.7557 354.432L111.973 367.472L124.867 371.599L138.01 374.844L170.24 379.181L170.63 379.298L170.686 379.314L170.741 379.331L171.234 379.507L172.032 379.857L172.456 380.09L172.626 380.182L172.711 380.229L172.796 380.275L172.829 380.296L172.862 380.317L172.96 380.379L172.993 380.399L173.026 380.42L173.091 380.461L174.46 381.537L175.408 382.559L175.827 383.117L176.086 383.527L176.138 383.608L176.293 383.854L176.619 384.471L176.643 384.523L176.763 384.788L176.787 384.841L176.835 384.947L177.139 385.765L177.33 386.435L177.339 386.473L177.348 386.511L177.356 386.549L177.365 386.587L177.382 386.662L177.4 386.738L177.408 386.776L177.528 387.463L177.576 387.925L177.584 388.003L177.6 388.157L177.622 389.029L177.62 389.087L177.599 389.551L177.438 390.761L177.426 390.818L177.388 390.988L177.325 391.272L177.196 391.719L177.132 391.943L177.12 391.98L177.094 392.053L177.082 392.09L177.069 392.126L177.056 392.163L177.044 392.199L177.019 392.273L176.685 393.078L176.581 393.286L176.555 393.338L176.529 393.39L176.451 393.546L176.102 394.151L175.609 394.869L175.17 395.411L112.356 458.352L112.263 458.467L112.216 458.524L112.169 458.581L112.123 458.638L111.936 458.867L97.5823 479.694L97.0318 480.352L96.9785 480.406L96.6054 480.788L96.5521 480.843L96.2675 481.097L96.2106 481.147L96.0967 481.249L96.0398 481.3L94.6332 482.279L93.4004 482.88L93.1862 482.96L93.1328 482.981L93.0792 483.001L93.0257 483.021L92.9186 483.061L92.8641 483.078L92.8096 483.096L92.7551 483.113L92.6462 483.148L92.5916 483.165L92.5371 483.182L92.4827 483.2L92.4281 483.217L92.1516 483.289L92.0963 483.304L92.041 483.318L91.9303 483.347L0 500L16.6363 407.979L16.7666 407.481L16.8704 407.154L16.9224 406.99L16.9424 406.937L17.1031 406.508L17.3823 405.881L17.5609 405.544L17.5966 405.476L17.7037 405.274L18.066 404.691L18.0878 404.659L18.2183 404.471L18.2619 404.409L18.6821 403.866L19.6289 402.873L19.9941 402.567L20.0671 402.505L20.2862 402.322ZM30.8832 435.042L30.2654 436.186L29.5361 437.759L29.2128 438.564L28.6511 440.204L28.4133 441.038L20.1923 479.787L58.9031 471.558L60.5608 471.053L62.1793 470.434L63.751 469.704L64.2592 469.43L64.8944 469.086L66.004 468.409L66.6001 468.001L66.7193 467.919L67.0769 467.675L68.445 466.611L69.4209 465.751L70.9436 464.21L71.7909 463.224L72.8386 461.842L73.5601 460.76L74.2241 459.642L75.1986 457.706L75.7013 456.507L76.2731 454.869L76.8258 452.773L77.1945 450.637L77.3904 448.044L77.2765 445.012L76.9702 442.866L76.4788 440.755L75.8061 438.695L74.5697 435.925L73.715 434.416L73.0064 433.326L71.975 431.932L69.635 429.376L68.6693 428.506L67.6596 427.687L66.6087 426.921L64.012 425.357L62.4491 424.608L61.2448 424.119L57.0772 422.954L54.9334 422.647L53.2043 422.537L51.0389 422.569L49.3138 422.729L49.0767 422.771L48.9581 422.791L48.721 422.832L48.6025 422.852L47.6541 423.016L47.5355 423.037L47.4169 423.057L47.1798 423.098L45.086 423.652L43.8554 424.07L42.2519 424.727L39.2008 426.367L37.4208 427.602L35.4361 429.281L33.3563 431.487L32.2932 432.857L31.5597 433.931L30.8832 435.042Z" fill="url(#paint4_linear_36_58)"/>
<path d="M658.913 431.5C640.247 431.5 622.413 427.833 605.413 420.5C588.747 412.833 575.08 401.667 564.413 387C554.08 372 548.913 353.333 548.913 331V166H644.413V340C644.413 343 645.08 345.667 646.413 348C647.747 350 649.58 351.667 651.913 353C654.247 354.333 656.58 355 658.913 355C661.58 355 663.913 354.333 665.913 353C667.913 351.667 669.58 350 670.913 348C672.247 345.667 672.913 343 672.913 340V260.5C672.913 238.5 678.08 220 688.413 205C699.08 190 712.747 178.833 729.413 171.5C746.413 163.833 764.413 160 783.413 160C802.747 160 820.747 163.833 837.413 171.5C854.08 178.833 867.58 190 877.913 205C888.58 220 893.913 238.5 893.913 260.5V340C893.913 343 894.58 345.667 895.913 348C897.247 350 899.08 351.667 901.413 353C903.747 354.333 906.08 355 908.413 355C911.08 355 913.413 354.333 915.413 353C917.747 351.667 919.58 350 920.913 348C922.247 345.667 922.913 343 922.913 340V166H1018.91V331C1018.91 353.333 1013.58 372 1002.91 387C992.58 401.667 978.913 412.833 961.913 420.5C945.247 427.833 927.413 431.5 908.413 431.5C889.747 431.5 871.913 427.833 854.913 420.5C838.247 412.833 824.58 401.667 813.913 387C803.247 372 797.913 353.333 797.913 331V251.5C797.913 248.167 797.247 245.5 795.913 243.5C794.58 241.167 792.747 239.333 790.413 238C788.413 236.667 786.08 236 783.413 236C781.08 236 778.747 236.667 776.413 238C774.08 239.333 772.247 241.167 770.913 243.5C769.58 245.5 768.913 248.167 768.913 251.5V331C768.913 353.333 763.58 372 752.913 387C742.58 401.667 728.913 412.833 711.913 420.5C695.247 427.833 677.58 431.5 658.913 431.5Z" fill="url(#paint5_linear_36_58)"/>
<path d="M1224.78 425V239H1185.78V166H1224.78V140C1224.78 115.333 1231.95 95.8335 1246.28 81.5001C1260.61 67.1668 1280.45 60.0001 1305.78 60.0001H1394.28V134H1332.28C1328.95 134 1326.11 135.167 1323.78 137.5C1321.45 139.5 1320.28 142.167 1320.28 145.5V166H1382.78V239H1320.28V425H1224.78Z" fill="url(#paint6_linear_36_58)"/>
<path d="M1512.81 425C1487.48 425 1467.65 417.833 1453.31 403.5C1438.98 389.167 1431.81 369.667 1431.81 345V106H1527.81V336C1527.81 339.333 1528.98 342.167 1531.31 344.5C1533.65 346.5 1536.48 347.5 1539.81 347.5H1596.31V425H1512.81ZM1392.81 239V166H1596.31V239H1392.81Z" fill="url(#paint7_linear_36_58)"/>
<path d="M1767.19 425V75.0001H1875.19V206H1979.69V75.0001H2087.69V425H1979.69V290.5H1875.19V425H1767.19Z" fill="url(#paint8_linear_36_58)"/>
<path d="M2275.46 425C2246.46 425 2220.62 420 2197.96 410C2175.29 400 2157.29 385.5 2143.96 366.5C2130.96 347.167 2124.46 323.667 2124.46 296C2124.46 265.667 2130.96 240.5 2143.96 220.5C2156.96 200.5 2173.79 185.5 2194.46 175.5C2215.46 165.167 2237.46 160 2260.46 160C2284.12 160 2305.29 165 2323.96 175C2342.96 184.667 2357.96 198.667 2368.96 217C2380.29 235.333 2385.96 257.333 2385.96 283C2385.96 289.333 2385.62 296.667 2384.96 305C2384.29 313 2383.29 319.833 2381.96 325.5H2222.96C2224.29 331.167 2226.79 336 2230.46 340C2234.12 343.667 2239.12 346.333 2245.46 348C2251.79 349.667 2258.96 350.5 2266.96 350.5H2359.46V425H2275.46ZM2218.46 272.5H2297.46C2297.46 268.5 2296.96 264.667 2295.96 261C2294.96 257.333 2293.29 254 2290.96 251C2288.96 247.667 2286.46 244.833 2283.46 242.5C2280.46 239.833 2276.79 237.833 2272.46 236.5C2268.46 235.167 2263.96 234.5 2258.96 234.5C2252.62 234.5 2246.96 235.5 2241.96 237.5C2237.29 239.5 2233.29 242.167 2229.96 245.5C2226.62 248.833 2223.96 252.833 2221.96 257.5C2220.29 262.167 2219.12 267.167 2218.46 272.5Z" fill="url(#paint9_linear_36_58)"/>
<path d="M2422.94 425V60.0001H2518.44V425H2422.94Z" fill="url(#paint10_linear_36_58)"/>
<path d="M2704.11 159.5C2725.78 159.5 2745.28 162.833 2762.61 169.5C2780.28 176.167 2795.44 185.833 2808.11 198.5C2820.78 210.833 2830.44 225.5 2837.11 242.5C2844.11 259.5 2847.61 278.333 2847.61 299C2847.61 325.333 2842.11 348.5 2831.11 368.5C2820.44 388.167 2805.78 403.5 2787.11 414.5C2768.44 425.5 2747.61 431 2724.61 431C2715.61 431 2707.11 430 2699.11 428C2691.11 426 2683.78 423.167 2677.11 419.5C2670.44 415.5 2664.61 410.5 2659.61 404.5H2656.61V531H2560.61V300C2560.61 271.667 2566.61 247 2578.61 226C2590.61 205 2607.44 188.667 2629.11 177C2650.78 165.333 2675.78 159.5 2704.11 159.5ZM2704.11 243.5C2695.44 243.5 2687.61 245.667 2680.61 250C2673.61 254.333 2668.11 260.333 2664.11 268C2660.44 275.667 2658.61 284.667 2658.61 295C2658.61 304.333 2660.44 312.833 2664.11 320.5C2668.11 327.833 2673.61 333.667 2680.61 338C2687.61 342.333 2695.44 344.5 2704.11 344.5C2713.11 344.5 2720.94 342.333 2727.61 338C2734.61 333.667 2739.94 327.833 2743.61 320.5C2747.61 312.833 2749.61 304.333 2749.61 295C2749.61 284.667 2747.61 275.667 2743.61 268C2739.94 260.333 2734.61 254.333 2727.61 250C2720.94 245.667 2713.11 243.5 2704.11 243.5Z" fill="url(#paint11_linear_36_58)"/>
<path d="M3030.34 425C3001.34 425 2975.51 420 2952.84 410C2930.17 400 2912.17 385.5 2898.84 366.5C2885.84 347.167 2879.34 323.667 2879.34 296C2879.34 265.667 2885.84 240.5 2898.84 220.5C2911.84 200.5 2928.67 185.5 2949.34 175.5C2970.34 165.167 2992.34 160 3015.34 160C3039.01 160 3060.17 165 3078.84 175C3097.84 184.667 3112.84 198.667 3123.84 217C3135.17 235.333 3140.84 257.333 3140.84 283C3140.84 289.333 3140.51 296.667 3139.84 305C3139.17 313 3138.17 319.833 3136.84 325.5H2977.84C2979.17 331.167 2981.67 336 2985.34 340C2989.01 343.667 2994.01 346.333 3000.34 348C3006.67 349.667 3013.84 350.5 3021.84 350.5H3114.34V425H3030.34ZM2973.34 272.5H3052.34C3052.34 268.5 3051.84 264.667 3050.84 261C3049.84 257.333 3048.17 254 3045.84 251C3043.84 247.667 3041.34 244.833 3038.34 242.5C3035.34 239.833 3031.67 237.833 3027.34 236.5C3023.34 235.167 3018.84 234.5 3013.84 234.5C3007.51 234.5 3001.84 235.5 2996.84 237.5C2992.17 239.5 2988.17 242.167 2984.84 245.5C2981.51 248.833 2978.84 252.833 2976.84 257.5C2975.17 262.167 2974.01 267.167 2973.34 272.5Z" fill="url(#paint12_linear_36_58)"/>
<path d="M3176.82 425V246.5C3176.82 221.833 3183.99 202.333 3198.32 188C3212.65 173.667 3232.65 166.5 3258.32 166.5H3341.32V239H3291.82C3286.15 239 3281.49 240.833 3277.82 244.5C3274.49 247.833 3272.82 252.333 3272.82 258V425H3176.82Z" fill="url(#paint13_linear_36_58)"/>
<path fill-rule="evenodd" clip-rule="evenodd" d="M1061.61 166V425H1157.61V166H1061.61Z" fill="url(#paint14_linear_36_58)"/>
<path fill-rule="evenodd" clip-rule="evenodd" d="M1128.7 110.616L1129.91 108.902L1130.96 107.09L1131.52 105.961L1132.17 104.414L1133.13 101.203L1133.51 99.1403L1133.72 96.6335L1133.63 93.7001L1133.43 92.0355L1133.19 90.7989L1132.9 89.576L1132.54 88.3701L1131.96 86.7946L1131.63 86.0229L1130.89 84.5161L1130.49 83.7831L1109.61 51.6512L1088.74 83.7831L1087.95 85.2635L1087.26 86.7953L1086.68 88.3708L1086.32 89.5766L1086.03 90.7996L1085.8 92.0362L1085.59 93.7008L1085.51 94.9566L1085.52 97.0532L1085.61 98.3083L1085.84 99.9705L1086.09 101.205L1086.4 102.424L1087.05 104.415L1087.53 105.58L1088.26 107.092L1089.31 108.903L1090.52 110.617L1092.16 112.525L1094.31 114.52L1095.99 115.778L1097.77 116.886L1099.64 117.834L1102.38 118.883L1104 119.329L1105.23 119.59L1106.89 119.838L1110.24 119.983L1111.5 119.917L1112.75 119.786L1113.99 119.59L1116.84 118.882L1118.42 118.324L1119.58 117.834L1123.23 115.778L1124.91 114.52L1126.17 113.412L1127.63 111.908L1128.7 110.616ZM1157.88 173.156L1157.96 172.659L1158.05 129.413L1162.53 104.701L1162.6 103.873L1162.57 102.546L1162.49 101.887L1162.43 101.56L1162.28 100.913L1162.08 100.278L1161.85 99.6583L1161.64 99.2043L1161.41 98.7616L1161.16 98.3313L1109.61 24.0004L1058.06 98.3313L1057.81 98.7616L1057.58 99.2043L1057.37 99.6579L1056.94 100.913L1056.65 102.546L1056.61 103.209L1056.62 103.873L1056.69 104.7L1061.11 128.773L1061.17 129.412L1061.22 215.469L1061.29 216.14L1061.44 216.97L1061.61 217.621L1061.78 218.101L1062.1 218.881L1062.25 219.184L1062.57 219.775L1062.84 220.202L1063.56 221.14L1063.9 221.513L1064.51 222.095L1065.04 222.52L1065.59 222.908L1065.88 223.087L1066.47 223.415L1067.23 223.766L1067.71 223.945L1068.35 224.143L1069.18 224.327L1069.84 224.422L1071.19 224.472L1072.87 224.271L1073.19 224.196L1074 223.959L1074.79 223.651L1075.25 223.435L1075.69 223.194L1100.73 204.094L1111.94 197.315L1123.59 191.31L1152.52 180.226L1153.54 179.657L1154.1 179.278L1154.36 179.074L1154.87 178.64L1155.12 178.41L1155.58 177.925L1155.9 177.54L1156.21 177.14L1156.67 176.439L1156.83 176.148L1157.14 175.55L1157.45 174.774L1157.61 174.297L1157.75 173.812L1157.88 173.156Z" fill="url(#paint15_linear_36_58)"/>
<defs>
<linearGradient id="paint0_linear_36_58" x1="3341" y1="-0.00283133" x2="802.319" y2="-1186.16" gradientUnits="userSpaceOnUse">
<stop stop-color="#FF0000"/>
<stop offset="1" stop-color="#FF8A00"/>
</linearGradient>
<linearGradient id="paint1_linear_36_58" x1="3341" y1="-0.00283133" x2="802.319" y2="-1186.16" gradientUnits="userSpaceOnUse">
<stop stop-color="#FF0000"/>
<stop offset="1" stop-color="#FF8A00"/>
</linearGradient>
<linearGradient id="paint2_linear_36_58" x1="3341" y1="-0.00283133" x2="802.319" y2="-1186.16" gradientUnits="userSpaceOnUse">
<stop stop-color="#FF0000"/>
<stop offset="1" stop-color="#FF8A00"/>
</linearGradient>
<linearGradient id="paint3_linear_36_58" x1="3341" y1="-0.00283133" x2="802.319" y2="-1186.16" gradientUnits="userSpaceOnUse">
<stop stop-color="#FF0000"/>
<stop offset="1" stop-color="#FF8A00"/>
</linearGradient>
<linearGradient id="paint4_linear_36_58" x1="3341" y1="-0.00283133" x2="802.319" y2="-1186.16" gradientUnits="userSpaceOnUse">
<stop stop-color="#FF0000"/>
<stop offset="1" stop-color="#FF8A00"/>
</linearGradient>
<linearGradient id="paint5_linear_36_58" x1="3341" y1="-0.00283133" x2="802.319" y2="-1186.16" gradientUnits="userSpaceOnUse">
<stop stop-color="#FF0000"/>
<stop offset="1" stop-color="#FF8A00"/>
</linearGradient>
<linearGradient id="paint6_linear_36_58" x1="3341" y1="-0.00283133" x2="802.319" y2="-1186.16" gradientUnits="userSpaceOnUse">
<stop stop-color="#FF0000"/>
<stop offset="1" stop-color="#FF8A00"/>
</linearGradient>
<linearGradient id="paint7_linear_36_58" x1="3341" y1="-0.00283133" x2="802.319" y2="-1186.16" gradientUnits="userSpaceOnUse">
<stop stop-color="#FF0000"/>
<stop offset="1" stop-color="#FF8A00"/>
</linearGradient>
<linearGradient id="paint8_linear_36_58" x1="3341" y1="-0.00283133" x2="802.319" y2="-1186.16" gradientUnits="userSpaceOnUse">
<stop stop-color="#FF0000"/>
<stop offset="1" stop-color="#FF8A00"/>
</linearGradient>
<linearGradient id="paint9_linear_36_58" x1="3341" y1="-0.00283133" x2="802.319" y2="-1186.16" gradientUnits="userSpaceOnUse">
<stop stop-color="#FF0000"/>
<stop offset="1" stop-color="#FF8A00"/>
</linearGradient>
<linearGradient id="paint10_linear_36_58" x1="3341" y1="-0.00283133" x2="802.319" y2="-1186.16" gradientUnits="userSpaceOnUse">
<stop stop-color="#FF0000"/>
<stop offset="1" stop-color="#FF8A00"/>
</linearGradient>
<linearGradient id="paint11_linear_36_58" x1="3341" y1="-0.00283133" x2="802.319" y2="-1186.16" gradientUnits="userSpaceOnUse">
<stop stop-color="#FF0000"/>
<stop offset="1" stop-color="#FF8A00"/>
</linearGradient>
<linearGradient id="paint12_linear_36_58" x1="3341" y1="-0.00283133" x2="802.319" y2="-1186.16" gradientUnits="userSpaceOnUse">
<stop stop-color="#FF0000"/>
<stop offset="1" stop-color="#FF8A00"/>
</linearGradient>
<linearGradient id="paint13_linear_36_58" x1="3341" y1="-0.00283133" x2="802.319" y2="-1186.16" gradientUnits="userSpaceOnUse">
<stop stop-color="#FF0000"/>
<stop offset="1" stop-color="#FF8A00"/>
</linearGradient>
<linearGradient id="paint14_linear_36_58" x1="3341" y1="-0.00283133" x2="802.319" y2="-1186.16" gradientUnits="userSpaceOnUse">
<stop stop-color="#FF0000"/>
<stop offset="1" stop-color="#FF8A00"/>
</linearGradient>
<linearGradient id="paint15_linear_36_58" x1="3341" y1="-0.00283133" x2="802.319" y2="-1186.16" gradientUnits="userSpaceOnUse">
<stop stop-color="#FF0000"/>
<stop offset="1" stop-color="#FF8A00"/>
</linearGradient>
</defs>
</svg>
